<svg width="18" height="21" viewBox="0 0 18 21" fill="none" xmlns="http://www.w3.org/2000/svg">
<path d="M16.6231 4.7512L16.6231 4.75141C16.8341 4.76386 17.0344 4.84824 17.1823 4.9907C17.3306 5.13352 17.4154 5.32459 17.4149 5.52571M16.6231 4.7512L17.2899 5.52542M16.6231 4.7512H16.6158H3.71308C3.5564 4.7491 3.40212 4.71851 3.25959 4.66155C3.11683 4.60449 2.98926 4.52235 2.88421 4.42069C2.77919 4.31906 2.69893 4.20012 2.64748 4.07142C2.59604 3.94277 2.57425 3.80656 2.58306 3.6708L2.58334 3.67082L2.58332 3.66236C2.58258 3.39066 2.69641 3.1262 2.90623 2.92315C3.11557 2.72057 3.40467 2.59477 3.71629 2.57421M16.6231 4.7512L3.71629 2.57421M17.4149 5.52571L17.2899 5.52542M17.4149 5.52571V5.52542H17.2899M17.4149 5.52571V20.0449C17.4149 20.2434 17.3272 20.4308 17.1761 20.5668C17.0254 20.7024 16.8237 20.7766 16.6158 20.7766H3.71227H3.70833L3.70833 20.7765C2.98109 20.7536 2.2898 20.4774 1.78091 20.0028C1.27164 19.5279 0.984554 18.8906 0.984994 18.2246M17.2899 5.52542V20.0449C17.2899 20.2058 17.2189 20.3601 17.0925 20.4739C16.966 20.5877 16.7946 20.6516 16.6158 20.6516H3.71227C3.01355 20.6296 2.35165 20.3642 1.86617 19.9114C1.38068 19.4586 1.10957 18.8539 1.10999 18.2246H0.984994M0.984994 18.2246V4.11356C0.978666 4.06128 0.978503 4.00853 0.984505 3.95623C0.978476 3.85711 0.978639 3.75775 0.984995 3.65863C0.985736 2.99413 1.27269 2.35849 1.78091 1.8845C2.2898 1.4099 2.98109 1.1337 3.70833 1.11078L3.71227 1.11066V1.11072H16.6158C16.8237 1.11072 17.0254 1.18494 17.1761 1.32052C17.3272 1.45648 17.4149 1.64389 17.4149 1.84246C17.4149 2.04104 17.3272 2.22845 17.1761 2.36441C17.0254 2.49998 16.8237 2.57421 16.6158 2.57421H3.71629M0.984994 18.2246L3.71629 2.57421M2.58332 18.225V18.2246V6.01011C2.9377 6.1546 3.32425 6.22476 3.71389 6.21469H15.8166V19.3131H3.7163C3.40468 19.2926 3.11557 19.1668 2.90623 18.9642C2.69641 18.7611 2.58258 18.4967 2.58332 18.225Z" fill="#484C52" stroke="#484C52" stroke-width="0.25"/>
</svg>
