<svg width="25" height="25" viewBox="0 0 25 25" fill="none" xmlns="http://www.w3.org/2000/svg">
<path fill-rule="evenodd" clip-rule="evenodd" d="M3.42694 11.7477C3.42694 11.4039 3.5635 11.0742 3.80659 10.8312C4.04967 10.5881 4.37936 10.4515 4.72313 10.4515H6.01931C6.36308 10.4515 6.69277 10.5881 6.93586 10.8312C7.17894 11.0742 7.3155 11.4039 7.3155 11.7477V13.0439C7.3155 13.3877 7.17894 13.7173 6.93586 13.9604C6.69277 14.2035 6.36308 14.3401 6.01931 14.3401H4.72313C4.37936 14.3401 4.04967 14.2035 3.80659 13.9604C3.5635 13.7173 3.42694 13.3877 3.42694 13.0439V11.7477ZM6.01931 11.7477V13.0439H4.72313V11.7477H6.01931ZM9.90787 10.4515C9.5641 10.4515 9.23441 10.5881 8.99133 10.8312C8.74825 11.0742 8.61169 11.4039 8.61169 11.7477V13.0439C8.61169 13.3877 8.74825 13.7173 8.99133 13.9604C9.23441 14.2035 9.5641 14.3401 9.90787 14.3401H11.2041C11.5478 14.3401 11.8775 14.2035 12.1206 13.9604C12.3637 13.7173 12.5002 13.3877 12.5002 13.0439V11.7477C12.5002 11.4039 12.3637 11.0742 12.1206 10.8312C11.8775 10.5881 11.5478 10.4515 11.2041 10.4515H9.90787ZM11.2041 11.7477H9.90787V13.0439H11.2041V11.7477ZM13.7964 11.7477C13.7964 11.4039 13.933 11.0742 14.1761 10.8312C14.4192 10.5881 14.7488 10.4515 15.0926 10.4515H16.3888C16.7326 10.4515 17.0623 10.5881 17.3053 10.8312C17.5484 11.0742 17.685 11.4039 17.685 11.7477V13.0439C17.685 13.3877 17.5484 13.7173 17.3053 13.9604C17.0623 14.2035 16.7326 14.3401 16.3888 14.3401H15.0926C14.7488 14.3401 14.4192 14.2035 14.1761 13.9604C13.933 13.7173 13.7964 13.3877 13.7964 13.0439V11.7477ZM15.0926 11.7477H16.3888V13.0439H15.0926V11.7477ZM4.72313 15.6363C4.37936 15.6363 4.04967 15.7728 3.80659 16.0159C3.5635 16.259 3.42694 16.5887 3.42694 16.9324V18.2286C3.42694 18.5724 3.5635 18.9021 3.80659 19.1452C4.04967 19.3883 4.37936 19.5248 4.72313 19.5248H6.01931C6.36308 19.5248 6.69277 19.3883 6.93586 19.1452C7.17894 18.9021 7.3155 18.5724 7.3155 18.2286V16.9324C7.3155 16.5887 7.17894 16.259 6.93586 16.0159C6.69277 15.7728 6.36308 15.6363 6.01931 15.6363H4.72313ZM4.72313 16.9324V18.2286H6.01931V16.9324H4.72313ZM8.61169 16.9324C8.61169 16.5887 8.74825 16.259 8.99133 16.0159C9.23441 15.7728 9.5641 15.6363 9.90787 15.6363H11.2041C11.5478 15.6363 11.8775 15.7728 12.1206 16.0159C12.3637 16.259 12.5002 16.5887 12.5002 16.9324V18.2286C12.5002 18.5724 12.3637 18.9021 12.1206 19.1452C11.8775 19.3883 11.5478 19.5248 11.2041 19.5248H9.90787C9.5641 19.5248 9.23441 19.3883 8.99133 19.1452C8.74825 18.9021 8.61169 18.5724 8.61169 18.2286V16.9324ZM9.90787 16.9324H11.2041V18.2286H9.90787V16.9324Z" fill="#484C52"/>
<path d="M19.6292 17.2565C19.8011 17.2565 19.966 17.3248 20.0875 17.4463C20.209 17.5678 20.2773 17.7327 20.2773 17.9046V19.2565L20.7355 19.7147C20.8536 19.8369 20.9189 20.0006 20.9174 20.1706C20.916 20.3405 20.8478 20.503 20.7276 20.6232C20.6075 20.7434 20.4449 20.8115 20.275 20.813C20.1051 20.8145 19.9414 20.7491 19.8191 20.6311L18.9811 19.7931V17.9046C18.9811 17.7327 19.0494 17.5678 19.171 17.4463C19.2925 17.3248 19.4573 17.2565 19.6292 17.2565Z" fill="#484C52"/>
<path fill-rule="evenodd" clip-rule="evenodd" d="M4.7234 1.3782C4.7234 1.20631 4.79168 1.04147 4.91322 0.919925C5.03476 0.798384 5.19961 0.730103 5.37149 0.730103C5.54338 0.730103 5.70822 0.798384 5.82976 0.919925C5.9513 1.04147 6.01958 1.20631 6.01958 1.3782V4.61866C6.01958 4.79055 5.9513 4.95539 5.82976 5.07693C5.70822 5.19847 5.54338 5.26676 5.37149 5.26676C5.19961 5.26676 5.03476 5.19847 4.91322 5.07693C4.79168 4.95539 4.7234 4.79055 4.7234 4.61866V3.97057H2.77912C2.60723 3.97057 2.44239 4.03885 2.32085 4.16039C2.19931 4.28193 2.13103 4.44678 2.13103 4.61866V7.21103H18.9814V4.61866C18.9814 4.44678 18.9132 4.28193 18.7916 4.16039C18.6701 4.03885 18.5052 3.97057 18.3334 3.97057H16.3891V2.67438H18.3334C18.849 2.67438 19.3435 2.87923 19.7082 3.24385C20.0728 3.60847 20.2776 4.10301 20.2776 4.61866V15.0335C21.4128 15.1976 22.4437 15.7855 23.1629 16.6789C23.8822 17.5724 24.2364 18.705 24.1542 19.849C24.0721 20.9931 23.5598 22.0635 22.7203 22.8451C21.8808 23.6266 20.7765 24.0612 19.6295 24.0615C18.8981 24.0619 18.1774 23.8854 17.529 23.5468C16.8806 23.2082 16.3239 22.7177 15.9062 22.1172H2.77912C2.26346 22.1172 1.76893 21.9123 1.40431 21.5477C1.03968 21.1831 0.834839 20.6886 0.834839 20.1729V4.61866C0.834839 4.10301 1.03968 3.60847 1.40431 3.24385C1.76893 2.87923 2.26346 2.67438 2.77912 2.67438H4.7234V1.3782ZM15.0929 19.5248C15.0927 18.4337 15.4858 17.3791 16.1999 16.5543C16.9141 15.7294 17.9016 15.1895 18.9814 15.0335V8.50722H2.13103V20.1729C2.13103 20.3448 2.19931 20.5096 2.32085 20.6312C2.44239 20.7527 2.60723 20.821 2.77912 20.821H15.2808C15.1558 20.4003 15.0925 19.9637 15.0929 19.5248ZM19.6295 22.7653C20.489 22.7653 21.3132 22.4239 21.9209 21.8162C22.5286 21.2085 22.87 20.3842 22.87 19.5248C22.87 18.6654 22.5286 17.8412 21.9209 17.2334C21.3132 16.6257 20.489 16.2843 19.6295 16.2843C18.7701 16.2843 17.9459 16.6257 17.3382 17.2334C16.7305 17.8412 16.3891 18.6654 16.3891 19.5248C16.3891 20.3842 16.7305 21.2085 17.3382 21.8162C17.9459 22.4239 18.7701 22.7653 19.6295 22.7653Z" fill="#484C52"/>
<path d="M14.4445 5.26676C14.2726 5.26676 14.1078 5.19847 13.9862 5.07693C13.8647 4.95539 13.7964 4.79055 13.7964 4.61866V3.97057H7.31549V2.67438H13.7964V1.3782C13.7964 1.20631 13.8647 1.04147 13.9862 0.919925C14.1078 0.798384 14.2726 0.730103 14.4445 0.730103C14.6164 0.730103 14.7812 0.798384 14.9028 0.919925C15.0243 1.04147 15.0926 1.20631 15.0926 1.3782V4.61866C15.0926 4.79055 15.0243 4.95539 14.9028 5.07693C14.7812 5.19847 14.6164 5.26676 14.4445 5.26676Z" fill="#484C52"/>
</svg>
