<svg width="24" height="24" viewBox="0 0 24 24" fill="none" xmlns="http://www.w3.org/2000/svg">
<path d="M7.94999 10.5216C7.94999 10.2663 8.05141 10.0214 8.23193 9.84091C8.41245 9.66039 8.65728 9.55898 8.91258 9.55898H14.6881C14.9434 9.55898 15.1882 9.66039 15.3687 9.84091C15.5492 10.0214 15.6507 10.2663 15.6507 10.5216C15.6507 10.7769 15.5492 11.0217 15.3687 11.2022C15.1882 11.3827 14.9434 11.4841 14.6881 11.4841H8.91258C8.65728 11.4841 8.41245 11.3827 8.23193 11.2022C8.05141 11.0217 7.94999 10.7769 7.94999 10.5216ZM8.91258 13.4093C8.65728 13.4093 8.41245 13.5107 8.23193 13.6912C8.05141 13.8718 7.94999 14.1166 7.94999 14.3719C7.94999 14.6272 8.05141 14.872 8.23193 15.0525C8.41245 15.2331 8.65728 15.3345 8.91258 15.3345H12.7629C13.0182 15.3345 13.263 15.2331 13.4436 15.0525C13.6241 14.872 13.7255 14.6272 13.7255 14.3719C13.7255 14.1166 13.6241 13.8718 13.4436 13.6912C13.263 13.5107 13.0182 13.4093 12.7629 13.4093H8.91258ZM0.249322 12.4467C0.249813 9.90367 1.08951 7.43185 2.63816 5.41472C4.18681 3.39759 6.35784 1.9479 8.81447 1.29054C11.2711 0.633174 13.876 0.804885 16.2251 1.77903C18.5742 2.75318 20.5361 4.47531 21.8066 6.67827C23.077 8.88124 23.585 11.4419 23.2517 13.963C22.9183 16.4841 21.7623 18.8248 19.963 20.6219C18.1637 22.419 15.8216 23.572 13.3 23.9022C10.7785 24.2324 8.2185 23.7212 6.01712 22.448L1.51608 23.9496C1.34979 24.0051 1.17149 24.0142 1.00043 23.9758C0.829375 23.9374 0.672049 23.853 0.545437 23.7317C0.418824 23.6105 0.327733 23.4569 0.281994 23.2877C0.236255 23.1185 0.237606 22.9399 0.2859 22.7714L1.65662 17.9758C0.730645 16.2802 0.246659 14.3787 0.249322 12.4467ZM11.8003 2.82089C10.1008 2.82078 8.43145 3.27067 6.9621 4.12482C5.49275 4.97897 4.27575 6.20692 3.4348 7.68386C2.59385 9.1608 2.15894 10.8341 2.17428 12.5336C2.18961 14.2331 2.65464 15.8982 3.52211 17.3598C3.58885 17.4727 3.63181 17.598 3.64837 17.7281C3.66492 17.8582 3.65471 17.9903 3.61837 18.1163L2.63845 21.5431L5.83038 20.4805C5.96594 20.4352 6.10987 20.4207 6.25173 20.438C6.39359 20.4554 6.52981 20.504 6.6505 20.5806C7.91201 21.3789 9.34192 21.8729 10.8272 22.0235C12.3125 22.1741 13.8125 21.9771 15.2085 21.4482C16.6046 20.9192 17.8585 20.0728 18.8711 18.9758C19.8837 17.8788 20.6273 16.5614 21.0431 15.1275C21.4589 13.6937 21.5354 12.1828 21.2667 10.7143C20.998 9.24574 20.3914 7.85984 19.4949 6.66611C18.5984 5.47238 17.4365 4.50355 16.101 3.83619C14.7656 3.16883 13.2932 2.82124 11.8003 2.82089Z" fill="#484C52"/>
</svg>
