<svg width="25" height="27" viewBox="0 0 25 27" fill="none" xmlns="http://www.w3.org/2000/svg">
<path fill-rule="evenodd" clip-rule="evenodd" d="M11.9079 0.978634C12.3339 0.647259 12.9305 0.647259 13.3566 0.978634L23.9752 9.23753C24.2626 9.46106 24.4307 9.80476 24.4307 10.1688V23.1471C24.4307 24.0859 24.0577 24.9862 23.394 25.6499C22.7302 26.3137 21.8299 26.6866 20.8911 26.6866H4.37333C3.43459 26.6866 2.5343 26.3137 1.87051 25.6499C1.20671 24.9861 0.833801 24.0859 0.833801 23.1471V10.1688C0.833801 9.80476 1.0019 9.46106 1.28929 9.23753L11.9079 0.978634ZM3.19349 10.7459V23.1471C3.19349 23.46 3.31779 23.7601 3.53905 23.9814C3.76032 24.2027 4.06042 24.327 4.37333 24.327H20.8911C21.204 24.327 21.5041 24.2027 21.7254 23.9814C21.9467 23.7601 22.071 23.46 22.071 23.1471V10.7459L12.6322 3.40464L3.19349 10.7459Z" fill="#484C52"/>
<path fill-rule="evenodd" clip-rule="evenodd" d="M7.91284 13.7084C7.91284 13.0568 8.44108 12.5286 9.09268 12.5286H16.1717C16.8234 12.5286 17.3516 13.0568 17.3516 13.7084V25.5069C17.3516 26.1585 16.8234 26.6867 16.1717 26.6867C15.5201 26.6867 14.9919 26.1585 14.9919 25.5069V14.8883H10.2725V25.5069C10.2725 26.1585 9.74429 26.6867 9.09268 26.6867C8.44108 26.6867 7.91284 26.1585 7.91284 25.5069V13.7084Z" fill="#484C52"/>
<path d="M2.35297 24.423V10.5461L13.5792 2.59418L23.4022 10.5461L22.6226 24.423L16.6976 25.9822V14.1323H9.21348V25.9822L2.35297 24.423Z" fill="#484C52"/>
</svg>
