<svg width="22" height="18" viewBox="0 0 22 18" fill="none" xmlns="http://www.w3.org/2000/svg">
<path d="M21.2381 10.1526V13.5848C21.2381 15.0721 17.5071 17.017 12.9047 17.017C8.30236 17.017 4.57141 15.0721 4.57141 13.5848V10.7246" stroke="black" stroke-opacity="0.5" stroke-width="1.14286" stroke-linecap="round" stroke-linejoin="round"/>
<path d="M4.92145 11.0209C5.95121 12.3343 9.13573 13.5665 12.9048 13.5665C17.5072 13.5665 21.2381 11.7291 21.2381 10.1503C21.2381 9.26363 20.0631 8.29231 18.2191 7.61044" stroke="black" stroke-opacity="0.5" stroke-width="1.14286" stroke-linecap="round" stroke-linejoin="round"/>
<path d="M17.6667 4.43221V7.86443C17.6667 9.35172 13.9357 11.2966 9.33333 11.2966C4.73095 11.2966 1 9.35172 1 7.86443V4.43221" stroke="black" stroke-opacity="0.5" stroke-width="1.14286" stroke-linecap="round" stroke-linejoin="round"/>
<path fill-rule="evenodd" clip-rule="evenodd" d="M9.33333 7.84612C13.9357 7.84612 17.6667 6.00874 17.6667 4.42992C17.6667 2.84996 13.9357 1 9.33333 1C4.73095 1 1 2.84996 1 4.42992C1 6.00874 4.73095 7.84612 9.33333 7.84612Z" stroke="black" stroke-opacity="0.5" stroke-width="1.14286" stroke-linecap="round" stroke-linejoin="round"/>
</svg>
