<svg width="20" height="20" viewBox="0 0 20 20" fill="none" xmlns="http://www.w3.org/2000/svg">
<path fill-rule="evenodd" clip-rule="evenodd" d="M2.22192 9.44448C2.22192 9.14979 2.33899 8.86718 2.54737 8.6588C2.75574 8.45043 3.03836 8.33337 3.33305 8.33337H4.44417C4.73886 8.33337 5.02148 8.45043 5.22986 8.6588C5.43824 8.86718 5.5553 9.14979 5.5553 9.44448V10.5556C5.5553 10.8503 5.43824 11.1329 5.22986 11.3413C5.02148 11.5496 4.73886 11.6667 4.44417 11.6667H3.33305C3.03836 11.6667 2.75574 11.5496 2.54737 11.3413C2.33899 11.1329 2.22192 10.8503 2.22192 10.5556V9.44448ZM4.44417 9.44448V10.5556H3.33305V9.44448H4.44417ZM7.77755 8.33337C7.48286 8.33337 7.20024 8.45043 6.99187 8.6588C6.78349 8.86718 6.66643 9.14979 6.66643 9.44448V10.5556C6.66643 10.8503 6.78349 11.1329 6.99187 11.3413C7.20024 11.5496 7.48286 11.6667 7.77755 11.6667H8.88868C9.18337 11.6667 9.46598 11.5496 9.67436 11.3413C9.88274 11.1329 9.9998 10.8503 9.9998 10.5556V9.44448C9.9998 9.14979 9.88274 8.86718 9.67436 8.6588C9.46598 8.45043 9.18337 8.33337 8.88868 8.33337H7.77755ZM8.88868 9.44448H7.77755V10.5556H8.88868V9.44448ZM11.1109 9.44448C11.1109 9.14979 11.228 8.86718 11.4364 8.6588C11.6447 8.45043 11.9274 8.33337 12.2221 8.33337H13.3332C13.6279 8.33337 13.9105 8.45043 14.1189 8.6588C14.3272 8.86718 14.4443 9.14979 14.4443 9.44448V10.5556C14.4443 10.8503 14.3272 11.1329 14.1189 11.3413C13.9105 11.5496 13.6279 11.6667 13.3332 11.6667H12.2221C11.9274 11.6667 11.6447 11.5496 11.4364 11.3413C11.228 11.1329 11.1109 10.8503 11.1109 10.5556V9.44448ZM12.2221 9.44448H13.3332V10.5556H12.2221V9.44448ZM3.33305 12.7778C3.03836 12.7778 2.75574 12.8949 2.54737 13.1032C2.33899 13.3116 2.22192 13.5942 2.22192 13.8889V15C2.22192 15.2947 2.33899 15.5773 2.54737 15.7857C2.75574 15.9941 3.03836 16.1111 3.33305 16.1111H4.44417C4.73886 16.1111 5.02148 15.9941 5.22986 15.7857C5.43824 15.5773 5.5553 15.2947 5.5553 15V13.8889C5.5553 13.5942 5.43824 13.3116 5.22986 13.1032C5.02148 12.8949 4.73886 12.7778 4.44417 12.7778H3.33305ZM3.33305 13.8889V15H4.44417V13.8889H3.33305ZM6.66643 13.8889C6.66643 13.5942 6.78349 13.3116 6.99187 13.1032C7.20024 12.8949 7.48286 12.7778 7.77755 12.7778H8.88868C9.18337 12.7778 9.46598 12.8949 9.67436 13.1032C9.88274 13.3116 9.9998 13.5942 9.9998 13.8889V15C9.9998 15.2947 9.88274 15.5773 9.67436 15.7857C9.46598 15.9941 9.18337 16.1111 8.88868 16.1111H7.77755C7.48286 16.1111 7.20024 15.9941 6.99187 15.7857C6.78349 15.5773 6.66643 15.2947 6.66643 15V13.8889ZM7.77755 13.8889H8.88868V15H7.77755V13.8889Z" fill="#484C52" fill-opacity="0.7"/>
<path d="M16.111 14.1667C16.2583 14.1667 16.3996 14.2252 16.5038 14.3294C16.608 14.4336 16.6665 14.5749 16.6665 14.7222V15.8811L17.0593 16.2739C17.1605 16.3787 17.2165 16.519 17.2153 16.6647C17.214 16.8103 17.1556 16.9497 17.0526 17.0527C16.9496 17.1557 16.8102 17.2141 16.6645 17.2154C16.5189 17.2166 16.3785 17.1606 16.2738 17.0594L15.5554 16.3411V14.7222C15.5554 14.5749 15.614 14.4336 15.7181 14.3294C15.8223 14.2252 15.9636 14.1667 16.111 14.1667Z" fill="#484C52" fill-opacity="0.7"/>
<path fill-rule="evenodd" clip-rule="evenodd" d="M3.33338 0.555556C3.33338 0.408213 3.39191 0.266905 3.4961 0.162719C3.60029 0.0585317 3.74159 0 3.88894 0C4.03628 0 4.17759 0.0585317 4.28178 0.162719C4.38597 0.266905 4.4445 0.408213 4.4445 0.555556V3.33333C4.4445 3.48068 4.38597 3.62198 4.28178 3.72617C4.17759 3.83036 4.03628 3.88889 3.88894 3.88889C3.74159 3.88889 3.60029 3.83036 3.4961 3.72617C3.39191 3.62198 3.33338 3.48068 3.33338 3.33333V2.77778H1.66669C1.51934 2.77778 1.37803 2.83631 1.27385 2.9405C1.16966 3.04468 1.11113 3.18599 1.11113 3.33333V5.55556H15.5558V3.33333C15.5558 3.18599 15.4972 3.04468 15.393 2.9405C15.2888 2.83631 15.1475 2.77778 15.0002 2.77778H13.3335V1.66667H15.0002C15.4422 1.66667 15.8662 1.84226 16.1787 2.15482C16.4913 2.46738 16.6669 2.89131 16.6669 3.33333V12.2611C17.64 12.4018 18.5237 12.9057 19.1402 13.6716C19.7568 14.4374 20.0604 15.4084 19.99 16.3891C19.9196 17.3697 19.4804 18.2873 18.7608 18.9573C18.0412 19.6272 17.0945 19.9998 16.1113 20C15.4843 20.0004 14.8665 19.849 14.3107 19.5588C13.7549 19.2686 13.2776 18.8481 12.9196 18.3333H1.66669C1.22466 18.3333 0.800726 18.1577 0.488162 17.8452C0.175597 17.5326 0 17.1087 0 16.6667V3.33333C0 2.89131 0.175597 2.46738 0.488162 2.15482C0.800726 1.84226 1.22466 1.66667 1.66669 1.66667H3.33338V0.555556ZM12.2224 16.1111C12.2223 15.1758 12.5592 14.2718 13.1714 13.5647C13.7836 12.8576 14.6301 12.3948 15.5558 12.2611V6.66667H1.11113V16.6667C1.11113 16.814 1.16966 16.9553 1.27385 17.0595C1.37803 17.1637 1.51934 17.2222 1.66669 17.2222H12.3835C12.2763 16.8616 12.2221 16.4873 12.2224 16.1111ZM16.1113 18.8889C16.848 18.8889 17.5546 18.5962 18.0755 18.0753C18.5965 17.5544 18.8891 16.8478 18.8891 16.1111C18.8891 15.3744 18.5965 14.6679 18.0755 14.1469C17.5546 13.626 16.848 13.3333 16.1113 13.3333C15.3746 13.3333 14.668 13.626 14.1471 14.1469C13.6262 14.6679 13.3335 15.3744 13.3335 16.1111C13.3335 16.8478 13.6262 17.5544 14.1471 18.0753C14.668 18.5962 15.3746 18.8889 16.1113 18.8889Z" fill="#484C52" fill-opacity="0.7"/>
<path d="M11.6666 3.88889C11.5193 3.88889 11.378 3.83036 11.2738 3.72617C11.1696 3.62198 11.1111 3.48068 11.1111 3.33333V2.77778H5.55545V1.66667H11.1111V0.555556C11.1111 0.408213 11.1696 0.266905 11.2738 0.162719C11.378 0.0585317 11.5193 0 11.6666 0C11.814 0 11.9553 0.0585317 12.0595 0.162719C12.1637 0.266905 12.2222 0.408213 12.2222 0.555556V3.33333C12.2222 3.48068 12.1637 3.62198 12.0595 3.72617C11.9553 3.83036 11.814 3.88889 11.6666 3.88889Z" fill="#484C52" fill-opacity="0.7"/>
</svg>
