<svg width="15" height="14" viewBox="0 0 15 14" fill="none" xmlns="http://www.w3.org/2000/svg">
<path d="M7.5 13.4911C5.51088 13.4911 3.60322 12.7804 2.1967 11.5154C0.790176 10.2504 0 8.5346 0 6.74556C0 4.95653 0.790176 3.24077 2.1967 1.97573C3.60322 0.710691 5.51088 0 7.5 0C9.48912 0 11.3968 0.710691 12.8033 1.97573C14.2098 3.24077 15 4.95653 15 6.74556C15 8.5346 14.2098 10.2504 12.8033 11.5154C11.3968 12.7804 9.48912 13.4911 7.5 13.4911ZM7.5 12.142C9.0913 12.142 10.6174 11.5735 11.7426 10.5614C12.8679 9.5494 13.5 8.17679 13.5 6.74556C13.5 5.31433 12.8679 3.94173 11.7426 2.9297C10.6174 1.91767 9.0913 1.34911 7.5 1.34911C5.9087 1.34911 4.38258 1.91767 3.25736 2.9297C2.13214 3.94173 1.5 5.31433 1.5 6.74556C1.5 8.17679 2.13214 9.5494 3.25736 10.5614C4.38258 11.5735 5.9087 12.142 7.5 12.142ZM11.25 6.07101V7.42012H3.75V6.07101H11.25Z" fill="black" fill-opacity="0.5"/>
</svg>
