<svg width="16" height="13" viewBox="0 0 16 13" fill="none" xmlns="http://www.w3.org/2000/svg">
<path d="M7.8252 4.22061C8.36768 4.22061 8.88795 4.47692 9.27155 4.93315C9.65515 5.38938 9.87065 6.00816 9.87065 6.65337C9.87065 7.29858 9.65515 7.91736 9.27155 8.37359C8.88795 8.82982 8.36768 9.08613 7.8252 9.08613C7.28271 9.08613 6.76244 8.82982 6.37884 8.37359C5.99524 7.91736 5.77974 7.29858 5.77974 6.65337C5.77974 6.00816 5.99524 5.38938 6.37884 4.93315C6.76244 4.47692 7.28271 4.22061 7.8252 4.22061ZM7.8252 0.571472C11.2343 0.571472 14.1456 3.09343 15.3252 6.65337C14.1456 10.2133 11.2343 12.7353 7.8252 12.7353C4.4161 12.7353 1.50474 10.2133 0.325195 6.65337C1.50474 3.09343 4.4161 0.571472 7.8252 0.571472ZM1.81156 6.65337C2.36264 7.99164 3.21836 9.11917 4.28143 9.9078C5.3445 10.6964 6.57228 11.1145 7.8252 11.1145C9.07811 11.1145 10.3059 10.6964 11.369 9.9078C12.432 9.11917 13.2877 7.99164 13.8388 6.65337C13.2877 5.3151 12.432 4.18757 11.369 3.39894C10.3059 2.61032 9.07811 2.19224 7.8252 2.19224C6.57228 2.19224 5.3445 2.61032 4.28143 3.39894C3.21836 4.18757 2.36264 5.3151 1.81156 6.65337Z" fill="#393939"/>
</svg>
