<svg width="20" height="20" viewBox="0 0 20 20" fill="none" xmlns="http://www.w3.org/2000/svg">
<path d="M14.6654 12.8982H13.7386L13.4101 12.5817C14.1433 11.7305 14.6791 10.7278 14.9792 9.64551C15.2794 8.56319 15.3364 7.42795 15.1463 6.32102C14.595 3.06173 11.8734 0.458987 8.58873 0.0603692C7.43396 -0.0856355 6.26107 0.0343085 5.15981 0.411023C4.05855 0.787737 3.05812 1.41124 2.23506 2.23381C1.412 3.05639 0.788138 4.05623 0.411203 5.15685C0.0342676 6.25746 -0.0857468 7.42966 0.0603435 8.58376C0.459195 11.8665 3.06346 14.5865 6.32466 15.1375C7.43224 15.3275 8.56815 15.2705 9.6511 14.9705C10.7341 14.6705 11.7373 14.135 12.589 13.4023L12.9057 13.7306V14.6568L17.8914 19.6395C18.3723 20.1202 19.1583 20.1202 19.6393 19.6395C20.1202 19.1589 20.1202 18.3733 19.6393 17.8927L14.6654 12.8982ZM7.6268 12.8982C4.70579 12.8982 2.34788 10.5417 2.34788 7.62239C2.34788 4.7031 4.70579 2.34656 7.6268 2.34656C10.5478 2.34656 12.9057 4.7031 12.9057 7.62239C12.9057 10.5417 10.5478 12.8982 7.6268 12.8982Z" fill="#484C52"/>
</svg>
