<svg width="24" height="24" viewBox="0 0 24 24" fill="none" xmlns="http://www.w3.org/2000/svg">
<path d="M12.692 8.94388H11.3087V9.52588C11.3087 9.68024 11.3816 9.82827 11.5113 9.93742C11.641 10.0466 11.8169 10.1079 12.0003 10.1079C12.1838 10.1079 12.3597 10.0466 12.4894 9.93742C12.6191 9.82827 12.692 9.68024 12.692 9.52588V8.94388Z" fill="black" fill-opacity="0.5"/>
<path fill-rule="evenodd" clip-rule="evenodd" d="M7.85059 6.61588V7.77988H8.54222V9.52589C8.54222 10.2977 8.90656 11.0378 9.55509 11.5836C10.2036 12.1293 11.0832 12.4359 12.0004 12.4359C11.0832 12.4359 10.2036 12.7425 9.55509 13.2882C8.90656 13.834 8.54222 14.5741 8.54222 15.3459V17.0919H7.85059V18.2559H16.1502V17.0919H15.4585V15.3459C15.4585 14.5741 15.0942 13.834 14.4457 13.2882C13.7971 12.7425 12.9175 12.4359 12.0004 12.4359C12.4545 12.4359 12.9042 12.3606 13.3238 12.2144C13.7433 12.0681 14.1245 11.8538 14.4457 11.5836C14.7668 11.3134 15.0215 10.9926 15.1953 10.6395C15.3691 10.2864 15.4585 9.90804 15.4585 9.52589V7.77988H16.1502V6.61588H7.85059ZM9.92548 7.77988H14.0753V9.52589C14.0753 9.98896 13.8567 10.4331 13.4676 10.7605C13.0784 11.0879 12.5507 11.2719 12.0004 11.2719C11.4501 11.2719 10.9223 11.0879 10.5332 10.7605C10.1441 10.4331 9.92548 9.98896 9.92548 9.52589V7.77988ZM9.92548 15.3459V17.0919H14.0753V15.3459C14.0753 14.8828 13.8567 14.4387 13.4676 14.1113C13.0784 13.7839 12.5507 13.5999 12.0004 13.5999C11.4501 13.5999 10.9223 13.7839 10.5332 14.1113C10.1441 14.4387 9.92548 14.8828 9.92548 15.3459Z" fill="black" fill-opacity="0.5"/>
<circle cx="12" cy="12" r="11.5" stroke="#666666"/>
</svg>
