<svg width="20" height="17" viewBox="0 0 20 17" fill="none" xmlns="http://www.w3.org/2000/svg">
<path d="M9.79598 0.646851C14.3985 0.646851 18.1293 3.98547 18.1293 8.10413C18.1293 12.2228 14.3985 15.5614 9.79598 15.5614C5.19348 15.5614 1.46265 12.2228 1.46265 8.10413C1.46265 3.98547 5.19348 0.646851 9.79598 0.646851ZM9.78765 6.61267H8.96265C8.75025 6.61288 8.54595 6.68566 8.39151 6.81614C8.23706 6.94662 8.14412 7.12495 8.13167 7.3147C8.11922 7.50444 8.18821 7.69128 8.32453 7.83703C8.46086 7.98279 8.65423 8.07646 8.86515 8.09891L8.96265 8.10413V11.8253C8.96265 12.2131 9.29098 12.5337 9.71265 12.574L9.80431 12.5785H10.2126C10.3879 12.5785 10.5587 12.5291 10.7008 12.4372C10.8428 12.3453 10.9489 12.2157 11.0039 12.0668C11.0589 11.9179 11.06 11.7573 11.0072 11.6077C10.9543 11.4582 10.85 11.3274 10.7093 11.2339L10.6293 11.187V7.36586C10.6293 6.97808 10.301 6.65742 9.87931 6.61715L9.78765 6.61267ZM9.79598 4.37549C9.57497 4.37549 9.363 4.45406 9.20672 4.59391C9.05044 4.73376 8.96265 4.92344 8.96265 5.12122C8.96265 5.319 9.05044 5.50867 9.20672 5.64853C9.363 5.78838 9.57497 5.86694 9.79598 5.86694C10.017 5.86694 10.229 5.78838 10.3852 5.64853C10.5415 5.50867 10.6293 5.319 10.6293 5.12122C10.6293 4.92344 10.5415 4.73376 10.3852 4.59391C10.229 4.45406 10.017 4.37549 9.79598 4.37549Z" fill="#484848"/>
</svg>
