<svg width="22" height="20" viewBox="0 0 22 20" fill="none" xmlns="http://www.w3.org/2000/svg">
<path d="M15.558 12.8982H14.5749L14.2264 12.5816C15.0042 11.7304 15.5726 10.7278 15.891 9.64545C16.2094 8.56313 16.27 7.42789 16.0683 6.32096C15.4834 3.06167 12.5961 0.458926 9.11153 0.0603082C7.88646 -0.0856965 6.64218 0.0342475 5.47389 0.410962C4.3056 0.787676 3.24427 1.41118 2.37111 2.23375C1.49795 3.05633 0.836112 4.05617 0.436233 5.15679C0.0363534 6.2574 -0.0909662 7.4296 0.0640166 8.5837C0.487146 11.8664 3.24994 14.5864 6.70964 15.1374C7.88464 15.3274 9.08969 15.2704 10.2386 14.9704C11.3874 14.6705 12.4517 14.135 13.3553 13.4023L13.6913 13.7306V14.6568L18.9804 19.6395C19.4907 20.1202 20.3245 20.1202 20.8347 19.6395C21.345 19.1588 21.345 18.3733 20.8347 17.8926L15.558 12.8982ZM8.09104 12.8982C4.99223 12.8982 2.49079 10.5416 2.49079 7.62233C2.49079 4.70304 4.99223 2.3465 8.09104 2.3465C11.1898 2.3465 13.6913 4.70304 13.6913 7.62233C13.6913 10.5416 11.1898 12.8982 8.09104 12.8982Z" fill="#666666" fill-opacity="0.5"/>
</svg>
