<svg width="16" height="16" viewBox="0 0 16 16" fill="none" xmlns="http://www.w3.org/2000/svg">
<path d="M3.05442 6.59154V15.204H0.327148V6.59154H3.05442ZM5.78169 15.204C5.42004 15.204 5.07319 15.0528 4.81746 14.7836C4.56173 14.5144 4.41806 14.1493 4.41806 13.7686V6.59154C4.41806 6.1968 4.56806 5.83795 4.82033 5.57958L9.30669 0.849915L10.0294 1.61068C10.2135 1.80446 10.3294 2.07001 10.3294 2.36427L10.309 2.59393L9.66124 5.87384H13.9635C14.3252 5.87384 14.672 6.02507 14.9277 6.29426C15.1835 6.56345 15.3271 6.92855 15.3271 7.30925V8.74465C15.3271 8.93125 15.2931 9.1035 15.2317 9.26857L13.1726 14.3284C12.9681 14.8451 12.484 15.204 11.9181 15.204H5.78169ZM5.78169 13.7686H11.9385L13.9635 8.74465V7.30925H7.97033L8.74078 3.49106L5.78169 6.61307V13.7686Z" fill="#393939"/>
</svg>
