<svg width="18" height="18" viewBox="0 0 18 18" fill="none" xmlns="http://www.w3.org/2000/svg">
<path d="M15.7801 11.3015C15.9692 11.4712 16.1192 11.6725 16.2214 11.894C16.3237 12.1156 16.3762 12.353 16.3759 12.5928C16.3759 13.0768 16.1613 13.541 15.7792 13.8832C15.3971 14.2254 14.8789 14.4177 14.3386 14.4177H3.03731C2.49698 14.4177 1.97878 14.2254 1.59672 13.8832C1.21465 13.541 1 13.0768 1 12.5928C0.999765 12.353 1.05226 12.1156 1.1545 11.894C1.25673 11.6725 1.40669 11.4712 1.59582 11.3015L2.92199 10.1136V6.67029C2.92199 5.30046 3.52948 3.98674 4.61081 3.01812C5.69214 2.0495 7.15873 1.50534 8.68796 1.50534C10.2172 1.50534 11.6838 2.0495 12.7651 3.01812C13.8465 3.98674 14.4539 5.30046 14.4539 6.67029V10.1136L15.7801 11.3015ZM11.571 14.4177H5.80498C5.80498 15.1026 6.10872 15.7595 6.64938 16.2438C7.19005 16.7281 7.92335 17.0002 8.68796 17.0002C9.45258 17.0002 10.1859 16.7281 10.7265 16.2438C11.2672 15.7595 11.571 15.1026 11.571 14.4177Z" stroke="#393939" stroke-width="1.5" stroke-linecap="round" stroke-linejoin="round"/>
<ellipse cx="13.6624" cy="3.46799" rx="3.61787" ry="3.22687" fill="#FF0000"/>
</svg>
