<svg width="19" height="15" viewBox="0 0 19 15" fill="none" xmlns="http://www.w3.org/2000/svg">
<path d="M4.52033 14.068C2.23671 13.5685 0.728877 11.3822 1.04078 9.14974C1.33269 7.06049 3.14827 5.43131 5.32893 5.37484C5.49488 2.89298 7.55032 0.990561 9.87581 1.00004C12.3891 1.01027 14.5305 3.2511 14.385 5.94329C16.1738 6.23548 17.5885 7.55049 17.9237 9.19294C18.3341 11.2049 17.0563 13.3798 14.8688 14.068H4.52033Z" stroke="#393939"/>
<path d="M7.18879 6.99939C7.01341 6.71706 7.05452 6.35742 7.26987 6.14633C7.52181 5.89925 7.96533 5.90152 8.23989 6.18726L9.54935 7.5254L10.9486 6.12852C11.0936 6.04455 11.2631 6.01383 11.4282 6.04162C11.5933 6.06941 11.7436 6.15398 11.8535 6.28086C11.9634 6.40774 12.026 6.56904 12.0305 6.73717C12.0351 6.9053 11.9814 7.06979 11.8786 7.20252L10.5039 8.58386L12.02 10.1274C12.2045 10.4446 12.1185 10.8452 11.8424 11.043C11.718 11.1283 11.5692 11.1704 11.4188 11.1628C11.2684 11.1552 11.1245 11.0984 11.0093 11.0009L9.58593 9.59873L8.15918 10.9797C8.02647 11.0694 7.86815 11.1129 7.70847 11.1036C7.54878 11.0943 7.39655 11.0326 7.27509 10.928C7.15363 10.8234 7.06965 10.6817 7.03601 10.5246C7.00237 10.3674 7.02093 10.2036 7.08884 10.058L8.56349 8.52208L7.18879 6.99939Z" fill="#393939"/>
</svg>
