<svg width="14" height="15" viewBox="0 0 14 15" fill="none" xmlns="http://www.w3.org/2000/svg">
<path d="M1.26227 12.4944C1.26227 11.649 1.57834 10.8382 2.14095 10.2405C2.70356 9.64269 3.46662 9.30686 4.26227 9.30686H10.2623C11.0579 9.30686 11.821 9.64269 12.3836 10.2405C12.9462 10.8382 13.2623 11.649 13.2623 12.4944C13.2623 12.9171 13.1042 13.3224 12.8229 13.6213C12.5416 13.9202 12.1601 14.0881 11.7623 14.0881H2.76227C2.36444 14.0881 1.98291 13.9202 1.70161 13.6213C1.4203 13.3224 1.26227 12.9171 1.26227 12.4944Z" stroke="#393939" stroke-width="1.25" stroke-linejoin="round"/>
<path d="M7.26208 6.11936C8.50473 6.11936 9.51208 5.04904 9.51208 3.72874C9.51208 2.40843 8.50473 1.33811 7.26208 1.33811C6.01944 1.33811 5.01208 2.40843 5.01208 3.72874C5.01208 5.04904 6.01944 6.11936 7.26208 6.11936Z" stroke="#393939" stroke-width="1.25"/>
</svg>
