<svg width="20" height="15" viewBox="0 0 20 15" fill="none" xmlns="http://www.w3.org/2000/svg">
<path d="M10 6.50751C9.20435 6.50751 8.44129 6.19144 7.87868 5.62883C7.31607 5.06622 7 4.30316 7 3.50751C7 2.71186 7.31607 1.9488 7.87868 1.38619C8.44129 0.823578 9.20435 0.507507 10 0.507507C10.7956 0.507507 11.5587 0.823578 12.1213 1.38619C12.6839 1.9488 13 2.71186 13 3.50751C13 4.30316 12.6839 5.06622 12.1213 5.62883C11.5587 6.19144 10.7956 6.50751 10 6.50751ZM10 1.70751C9.004 1.70751 8.2 2.51151 8.2 3.50751C8.2 4.50351 9.004 5.30751 10 5.30751C10.996 5.30751 11.8 4.50351 11.8 3.50751C11.8 2.51151 10.996 1.70751 10 1.70751Z" fill="#393939"/>
<path d="M17.2 11.0075C16.864 11.0075 16.6 10.7508 16.6 10.4242C16.6 10.0975 16.864 9.84084 17.2 9.84084C17.536 9.84084 17.8 9.58417 17.8 9.25751C17.8 8.48396 17.4839 7.74209 16.9213 7.19511C16.3587 6.64813 15.5956 6.34084 14.8 6.34084H13.6C13.264 6.34084 13 6.08417 13 5.75751C13 5.43084 13.264 5.17417 13.6 5.17417C14.596 5.17417 15.4 4.39251 15.4 3.42417C15.4 2.45584 14.596 1.67417 13.6 1.67417C13.264 1.67417 13 1.41751 13 1.09084C13 0.764174 13.264 0.507507 13.6 0.507507C14.3956 0.507507 15.1587 0.814798 15.7213 1.36178C16.2839 1.90876 16.6 2.65063 16.6 3.42417C16.6 4.14751 16.336 4.80084 15.88 5.31417C17.668 5.78084 19 7.36751 19 9.25751C19 10.2258 18.196 11.0075 17.2 11.0075ZM2.8 11.0075C1.804 11.0075 1 10.2258 1 9.25751C1 7.36751 2.32 5.78084 4.12 5.31417C3.676 4.80084 3.4 4.14751 3.4 3.42417C3.4 2.65063 3.71607 1.90876 4.27868 1.36178C4.84129 0.814798 5.60435 0.507507 6.4 0.507507C6.736 0.507507 7 0.764174 7 1.09084C7 1.41751 6.736 1.67417 6.4 1.67417C5.404 1.67417 4.6 2.45584 4.6 3.42417C4.6 4.39251 5.404 5.17417 6.4 5.17417C6.736 5.17417 7 5.43084 7 5.75751C7 6.08417 6.736 6.34084 6.4 6.34084H5.2C4.40435 6.34084 3.64129 6.64813 3.07868 7.19511C2.51607 7.74209 2.2 8.48396 2.2 9.25751C2.2 9.58417 2.464 9.84084 2.8 9.84084C3.136 9.84084 3.4 10.0975 3.4 10.4242C3.4 10.7508 3.136 11.0075 2.8 11.0075ZM13.6 14.5075H6.4C5.404 14.5075 4.6 13.7258 4.6 12.7575V11.5908C4.6 9.33917 6.484 7.50751 8.8 7.50751H11.2C13.516 7.50751 15.4 9.33917 15.4 11.5908V12.7575C15.4 13.7258 14.596 14.5075 13.6 14.5075ZM8.8 8.67417C8.00435 8.67417 7.24129 8.98146 6.67868 9.52845C6.11607 10.0754 5.8 10.8173 5.8 11.5908V12.7575C5.8 13.0842 6.064 13.3408 6.4 13.3408H13.6C13.936 13.3408 14.2 13.0842 14.2 12.7575V11.5908C14.2 10.8173 13.8839 10.0754 13.3213 9.52845C12.7587 8.98146 11.9956 8.67417 11.2 8.67417H8.8Z" fill="#393939" stroke="black" stroke-width="0.25"/>
</svg>
