<svg width="15" height="15" viewBox="0 0 15 15" fill="none" xmlns="http://www.w3.org/2000/svg">
<path d="M10.912 2.30675C10.912 2.30675 11.6594 3.80163 10.912 5.62871M13.2374 0.977966C13.2374 0.977966 14.7322 3.66875 13.2374 6.95749M6.26126 6.2931C6.56663 6.2931 6.86901 6.23295 7.15114 6.11609C7.43326 5.99923 7.68961 5.82794 7.90554 5.61201C8.12147 5.39608 8.29276 5.13974 8.40962 4.85761C8.52648 4.57548 8.58663 4.2731 8.58663 3.96773C8.58663 3.66236 8.52648 3.35997 8.40962 3.07785C8.29276 2.79572 8.12147 2.53937 7.90554 2.32344C7.68961 2.10751 7.43326 1.93623 7.15114 1.81937C6.86901 1.70251 6.56663 1.64236 6.26126 1.64236C5.64453 1.64236 5.05306 1.88735 4.61697 2.32344C4.18088 2.75953 3.93589 3.351 3.93589 3.96773C3.93589 4.58445 4.18088 5.17592 4.61697 5.61201C5.05306 6.0481 5.64453 6.2931 6.26126 6.2931ZM1.27832 13.2028V13.6014H11.2442V13.2028C11.2442 11.7145 11.2442 10.9704 10.9545 10.4017C10.6997 9.90166 10.2932 9.49513 9.79316 9.24034C9.22444 8.95066 8.48032 8.95066 6.99209 8.95066H5.53043C4.04219 8.95066 3.29807 8.95066 2.72935 9.24034C2.22932 9.49513 1.82278 9.90166 1.568 10.4017C1.27832 10.9704 1.27832 11.7145 1.27832 13.2028Z" stroke="#393939" stroke-width="1.25" stroke-linecap="round" stroke-linejoin="round"/>
</svg>
